<svg xmlns="http://www.w3.org/2000/svg" viewBox="0 0 1440 960" role="img" aria-labelledby="title desc">
  <title id="title">Portfolio project preview</title>
  <desc id="desc">Abstract interface preview representing the portfolio project.</desc>
  <defs>
    <linearGradient id="surface" x1="0" y1="0" x2="1" y2="1">
      <stop offset="0%" stop-color="#111725" />
      <stop offset="100%" stop-color="#0a0d14" />
    </linearGradient>
    <linearGradient id="panel" x1="0" y1="0" x2="1" y2="1">
      <stop offset="0%" stop-color="#1a2335" />
      <stop offset="100%" stop-color="#0f1522" />
    </linearGradient>
  </defs>
  <rect width="1440" height="960" fill="url(#surface)" rx="48" />
  <circle cx="260" cy="180" r="160" fill="#7ee6ff" opacity="0.16" />
  <circle cx="1170" cy="760" r="220" fill="#8b7cff" opacity="0.16" />
  <rect x="120" y="96" width="1200" height="768" rx="36" fill="#0d1320" stroke="#7ee6ff" stroke-opacity="0.18" />
  <rect x="168" y="144" width="1104" height="72" rx="24" fill="#151c2d" />
  <rect x="216" y="300" width="520" height="220" rx="28" fill="url(#panel)" />
  <rect x="768" y="300" width="456" height="104" rx="24" fill="#151c2d" />
  <rect x="768" y="432" width="456" height="104" rx="24" fill="#151c2d" />
  <rect x="768" y="564" width="456" height="104" rx="24" fill="#151c2d" />
  <rect x="216" y="564" width="240" height="72" rx="20" fill="#7ee6ff" opacity="0.82" />
  <rect x="480" y="564" width="220" height="72" rx="20" fill="#8b7cff" opacity="0.52" />
  <text x="216" y="252" fill="#7ee6ff" font-family="'IBM Plex Sans', Arial, sans-serif" font-size="28">Bilingual editorial portfolio</text>
  <text x="216" y="384" fill="#f4f7fb" font-family="'Space Grotesk', Arial, sans-serif" font-size="76">Miguel Portfolio</text>
  <text x="216" y="448" fill="#c8d0df" font-family="'IBM Plex Sans', Arial, sans-serif" font-size="32">Astro, TypeScript, content-driven sections, and a deterministic design system.</text>
</svg>
